<svg xmlns="http://www.w3.org/2000/svg" viewBox="0 0 429.68 156.18"><defs><style>.a{fill:#12022c;}</style></defs><title>Asset 1</title><path class="a" d="M72.27,13.81,60.45,36.57,42.13,0,11.65,58.68a39.68,39.68,0,0,0-2.84,5.47L0,81.11l70.83,66.84,34.66-67.34Zm15.5,90.36c-1.23.61-5,2.39-5.69,2.61C76.3,108.41,69.5,105,50.21,82c-9.8-11.68-19.47-17.08-28.71-16a21.67,21.67,0,0,0-10.08,4l4.47-8.61c2.58-4.18,7.09-9.73,13.34-10.74,6.73-1.09,14.28,3.29,22.43,13C68.13,83.19,76.31,90,84.08,90.48l.87,0c4.53,0,8.52-2.3,12.89-5.88L87.77,104.17Zm-6-19.2L67.6,52.11l29.06,27C91.47,83.62,88,85.76,84.4,85.51A10.17,10.17,0,0,1,81.77,85ZM95.06,70.8,63.49,41.51l8.68-16.72ZM59.12,45l15.27,35.4C69.62,76.49,63.6,70.06,55.48,60.37,46.12,49.22,37,44.28,28.42,45.66a18.46,18.46,0,0,0-5.3,1.73L42,11Zm10.31,94.76-62-58.53c2.13-3.22,7.2-9.52,14.65-10.37S37.74,74.84,46.4,85.16c16.48,19.64,25.19,27,33.16,27a14.09,14.09,0,0,0,3.88-.56c.16,0,.38-.13.64-.23Z"/><path class="a" d="M168.75,37.52,127,127.13h13.71l9.39-20.48h36.1l8.85,20.48H209ZM155.42,94.69,168.53,66,181,94.69Z"/><path class="a" d="M232.68,73.83a23.46,23.46,0,0,0-6,4.86V73.94H214.39v53.19h12.29V99.55q0-15.18,10-15.18a11.74,11.74,0,0,1,6.83,2.51l5.63-11.25A19.86,19.86,0,0,0,239,72.47,13.78,13.78,0,0,0,232.68,73.83Z"/><path class="a" d="M292.58,73.94v6a21.44,21.44,0,0,0-16.71-7.48,22.58,22.58,0,0,0-18.46,8.63q-6.5,8.14-6.5,19.77,0,12,7,19.93a22.66,22.66,0,0,0,17.8,7.86q9.56,0,16.88-7.48v7.43q0,16.55-13.49,16.55-7.32,0-11.14-5a14,14,0,0,1-2.35-6.06H253.26q1.09,10.43,8.19,16.33,6.88,5.73,17.53,5.73,12.62,0,19.82-8.3a22.52,22.52,0,0,0,5.13-10.32,46.05,46.05,0,0,0,.68-5.05q.25-2.87.25-6.64V73.94Zm-3.28,38.61a13.49,13.49,0,0,1-11.14,5.13,13.24,13.24,0,0,1-11-5.08q-3.66-4.64-3.66-11.91t3.66-12a13.23,13.23,0,0,1,11-5.19,13.72,13.72,0,0,1,10.76,4.75q4.15,4.64,4.15,12.4Q293.07,107.91,289.3,112.55Z"/><path class="a" d="M354.93,107.42q-3.77,5.9-6.72,8.08a12.57,12.57,0,0,1-7.59,2.18,13,13,0,0,1-9.67-3.82,16.15,16.15,0,0,1-4.26-10.43h38.12l.05-2.89q0-13.16-6.77-20.59t-18.57-7.48q-11.63,0-18.68,7.7t-7,20.42q0,12.73,7.21,20.42t19.11,7.65a32.21,32.21,0,0,0,7.7-.87,23.06,23.06,0,0,0,6.61-2.76,27,27,0,0,0,5.73-4.81,41.35,41.35,0,0,0,5.08-7ZM329.26,89.29A12.46,12.46,0,0,1,332,86.2a12,12,0,0,1,3.58-2,12.75,12.75,0,0,1,4.2-.68q9.83,0,12.4,9.83H327.52A14.33,14.33,0,0,1,329.26,89.29Z"/><path class="a" d="M421.49,80.6a29.09,29.09,0,0,0-40.3-.05,26.44,26.44,0,0,0-8.25,19.61q0,12.23,8.08,20.32a27,27,0,0,0,20,8.19,28.18,28.18,0,0,0,20.37-8,26.94,26.94,0,0,0,8.25-20A27.08,27.08,0,0,0,421.49,80.6ZM412.81,113q-4.31,4.64-11.52,4.64a15,15,0,0,1-11.52-4.7q-4.26-4.64-4.26-12.61,0-7.43,4.37-12.12a16.35,16.35,0,0,1,22.94,0q4.31,4.64,4.31,12.4T412.81,113Z"/></svg>